<?xml version="1.0" standalone="no"?><!DOCTYPE svg PUBLIC "-//W3C//DTD SVG 1.1//EN" "http://www.w3.org/Graphics/SVG/1.1/DTD/svg11.dtd"><svg t="1585898777065" class="icon" viewBox="0 0 1137 1024" version="1.1" xmlns="http://www.w3.org/2000/svg" p-id="8313" xmlns:xlink="http://www.w3.org/1999/xlink" width="222.0703125" height="200"><defs><style type="text/css"></style></defs><path d="M1096.248889 685.681778h-71.964445V460.743111a40.277333 40.277333 0 0 0-40.391111-39.879111H609.28v-82.488889h72.021333c22.186667 0 40.391111-17.976889 40.391111-39.936V40.96a40.277333 40.277333 0 0 0-40.391111-39.936h-224.711111c-22.186667 0-40.391111 17.976889-40.391111 39.936v258.104889c0 21.959111 18.204444 39.936 40.391111 39.936h72.021334v81.863111H153.827556c-22.186667 0-40.391111 17.976889-40.391112 39.879111v224.938667H41.528889c-22.186667 0-40.391111 17.92-40.391111 39.879111v258.161778c0 21.959111 18.204444 39.936 40.391111 39.936h225.28c22.243556 0 40.391111-17.976889 40.391111-39.936v-258.161778a40.277333 40.277333 0 0 0-40.391111-39.879111H194.275556V500.622222H528.497778v185.002667H456.533333c-22.186667 0-40.391111 17.92-40.391111 39.879111v258.161778c0 21.959111 18.204444 39.936 40.391111 39.936h225.393778c22.186667 0 40.334222-17.976889 40.334222-39.936v-258.161778a40.277333 40.277333 0 0 0-40.391111-39.879111H609.28V500.622222h334.336v185.002667h-71.964444c-22.186667 0-40.391111 17.92-40.391112 39.879111v258.161778c0 21.959111 18.204444 39.936 40.391112 39.936h225.336888c22.186667 0 40.391111-17.976889 40.391112-39.936v-258.161778a41.301333 41.301333 0 0 0-41.073778-39.879111zM496.924444 80.782222h144.611556v178.346667H496.924444V80.782222zM226.417778 943.217778H81.92v-178.346667h144.611556v178.346667z m414.378666 0h-143.928888v-178.346667h144.611555v178.346667h-0.682667z m415.061334 0h-144.611556v-178.346667h144.611556v178.346667z" fill="#8B20E9" p-id="8314"></path><path d="M496.924444 80.839111h144.611556v178.346667H496.924444zM226.474667 943.160889H81.92v-178.346667h144.611556zM640.853333 943.160889h-143.928889v-178.346667h144.611556v178.346667zM1055.857778 943.160889H911.36v-178.346667h144.611556z" fill="#E1C6FF" p-id="8315"></path></svg>