<?xml version="1.0" standalone="no"?><!DOCTYPE svg PUBLIC "-//W3C//DTD SVG 1.1//EN" "http://www.w3.org/Graphics/SVG/1.1/DTD/svg11.dtd"><svg t="1583995209019" class="icon" viewBox="0 0 1024 1024" version="1.1" xmlns="http://www.w3.org/2000/svg" p-id="18101" xmlns:xlink="http://www.w3.org/1999/xlink" width="200" height="200"><defs><style type="text/css"></style></defs><path d="M512 512m-512 0a512 512 0 1 0 1024 0 512 512 0 1 0-1024 0Z" fill="#F99900" p-id="18102"></path><path d="M722.4 143.2c0-3.2-3.2-6.4-8-7.2l-15.2-2.4c-4-0.8-8.8-4.8-8.8-8.8l-2.4-15.2c-0.8-4-4-8-7.2-8s-6.4 3.2-7.2 8l-1.6 15.2c-0.8 4-4.8 8.8-8.8 8.8L648 136c-4 0.8-8 4-8 7.2s3.2 6.4 8 7.2l15.2 2.4c4 0.8 8.8 4.8 8.8 8.8l2.4 15.2c0.8 4 4 8 7.2 8s6.4-3.2 6.4-8l2.4-16.8c0.8-4 4.8-8 8.8-8.8l14.4-0.8c4.8-1.6 8.8-4 8.8-7.2zM632 928.8c0-3.2-3.2-6.4-8-7.2l-15.2-2.4c-4-0.8-8.8-4.8-8.8-8.8l-2.4-15.2c-0.8-4-4-8-7.2-8s-6.4 3.2-7.2 8l-2.4 15.2c-0.8 4-4.8 8.8-8.8 8.8l-15.2 2.4c-4 0.8-8 4-8 7.2s3.2 6.4 8 7.2l15.2 2.4c4 0.8 8.8 4.8 8.8 8.8l2.4 15.2c0.8 4 4 8 7.2 8s6.4-3.2 6.4-8l2.4-16.8c0.8-4 4.8-8 8.8-8.8l14.4-0.8c6.4-0.8 9.6-4 9.6-7.2zM226.4 272.8c0-3.2-3.2-6.4-8-7.2l-15.2-1.6c-4-0.8-8.8-4.8-8.8-8.8L192 240c-0.8-4-4-8-7.2-8s-6.4 3.2-7.2 8l-1.6 14.4c-0.8 4-4.8 8.8-8.8 8.8l-15.2 3.2c-4 0.8-8 4-8 7.2s3.2 6.4 8 7.2l15.2 2.4c4 0.8 8.8 4.8 8.8 8.8l2.4 15.2c0.8 4 4 8 7.2 8s6.4-3.2 6.4-8l2.4-16.8c0.8-4 4.8-8 8.8-8.8l14.4-0.8c4.8-1.6 8.8-4.8 8.8-8zM384 936c-17.6 0-32-14.4-32-32s14.4-32 32-32 32 14.4 32 32-14.4 32-32 32z m0-48.8c-9.6 0-16.8 8-16.8 16.8 0 9.6 8 16.8 16.8 16.8 9.6 0 16.8-8 16.8-16.8 0-9.6-7.2-16.8-16.8-16.8zM384 256c-17.6 0-32-14.4-32-32s14.4-32 32-32 32 14.4 32 32-14.4 32-32 32z m0-48.8c-9.6 0-16.8 8-16.8 16.8 0 9.6 8 16.8 16.8 16.8 9.6 0 16.8-8 16.8-16.8 0-9.6-7.2-16.8-16.8-16.8z" fill="#FFFFFF" p-id="18103"></path><path d="M940 840H56c-4.8 0-8-3.2-8-8s3.2-8 8-8h884c4.8 0 8 3.2 8 8s-3.2 8-8 8z" fill="#6B3C1C" p-id="18104"></path><path d="M80 392h176v440H80z" fill="#AD5114" p-id="18105"></path><path d="M88 432h168v24H88z" fill="#993F0D" p-id="18106"></path><path d="M256 840H80c-4.8 0-8-3.2-8-8V392c0-4.8 3.2-8 8-8h176c4.8 0 8 3.2 8 8v440c0 4-3.2 8-8 8z m-168-16h160V400H88v424z" fill="#6B3C1C" p-id="18107"></path><path d="M72 376h184v48H72z" fill="#AD5114" p-id="18108"></path><path d="M256 432H72c-4.8 0-8-3.2-8-8v-48c0-4.8 3.2-8 8-8h184c4.8 0 8 3.2 8 8v48c0 4-3.2 8-8 8z m-176-16h168v-32H80v32z" fill="#6B3C1C" p-id="18109"></path><path d="M104 456h128v32H104z" fill="#FFFFFF" p-id="18110"></path><path d="M232 496H104c-4.8 0-8-3.2-8-8v-32c0-4.8 3.2-8 8-8h128c4.8 0 8 3.2 8 8v32c0 4.8-3.2 8-8 8z m-120-16h112v-16H112v16z" fill="#6B3C1C" p-id="18111"></path><path d="M104 528h128v32H104z" fill="#FFFFFF" p-id="18112"></path><path d="M232 568H104c-4.8 0-8-3.2-8-8v-32c0-4.8 3.2-8 8-8h128c4.8 0 8 3.2 8 8v32c0 4.8-3.2 8-8 8z m-120-16h112v-16H112v16z" fill="#6B3C1C" p-id="18113"></path><path d="M104 600h128v32H104z" fill="#FFFFFF" p-id="18114"></path><path d="M232 640H104c-4.8 0-8-3.2-8-8v-32c0-4.8 3.2-8 8-8h128c4.8 0 8 3.2 8 8v32c0 4.8-3.2 8-8 8z m-120-16h112v-16H112v16z" fill="#6B3C1C" p-id="18115"></path><path d="M104 672h128v32H104z" fill="#FFFFFF" p-id="18116"></path><path d="M232 712H104c-4.8 0-8-3.2-8-8v-32c0-4.8 3.2-8 8-8h128c4.8 0 8 3.2 8 8v32c0 4.8-3.2 8-8 8z m-120-16h112v-16H112v16z" fill="#6B3C1C" p-id="18117"></path><path d="M104 744h128v32H104z" fill="#FFFFFF" p-id="18118"></path><path d="M232 784H104c-4.8 0-8-3.2-8-8v-32c0-4.8 3.2-8 8-8h128c4.8 0 8 3.2 8 8v32c0 4.8-3.2 8-8 8z m-120-16h112v-16H112v16z" fill="#6B3C1C" p-id="18119"></path><path d="M232 408H96c-4.8 0-8-3.2-8-8s3.2-8 8-8h136c4.8 0 8 3.2 8 8s-3.2 8-8 8z" fill="#FFFFFF" p-id="18120"></path><path d="M656 832H496V178.4l160 91.2z" fill="#3AD0F9" p-id="18121"></path><path d="M656 840H496c-4.8 0-8-3.2-8-8V178.4c0-3.2 1.6-5.6 4-7.2 2.4-1.6 5.6-1.6 8 0l160 90.4c2.4 1.6 4 4 4 7.2V832c0 4.8-3.2 8-8 8z m-152-16h144V274.4L504 192.8V824z" fill="#6B3C1C" p-id="18122"></path><path d="M528 512c-4.8 0-8-3.2-8-8V256c0-4.8 3.2-8 8-8s8 3.2 8 8v248c0 4.8-3.2 8-8 8zM576 792c-4.8 0-8-3.2-8-8V288c0-4.8 3.2-8 8-8s8 3.2 8 8v496c0 4.8-3.2 8-8 8zM616 792c-4.8 0-8-3.2-8-8V440c0-4.8 3.2-8 8-8s8 3.2 8 8v344c0 4.8-3.2 8-8 8zM616 408c-4.8 0-8-3.2-8-8V320c0-4.8 3.2-8 8-8s8 3.2 8 8v80c0 4.8-3.2 8-8 8zM520 80c0-8.8-10.4-16-24-16H384.8c-13.6 0-24 7.2-24 16s-8.8 16-20 16-20 7.2-20 16 10.4 16 24 16h80c13.6 0 24-7.2 24-16s10.4-16 24-16h24c12.8 0 23.2-7.2 23.2-16z" fill="#FFFFFF" p-id="18123"></path><path d="M752 376h168v456H752zM775.2 272h114.4v104H775.2z" fill="#EAEAEA" p-id="18124"></path><path d="M912 840H752c-4.8 0-8-3.2-8-8V376c0-4.8 3.2-8 8-8h160c4.8 0 8 3.2 8 8v456c0 4-3.2 8-8 8z m-152-16h144V384H760v440z" fill="#6B3C1C" p-id="18125"></path><path d="M776 344h120v24H776z" fill="#D4D6D6" p-id="18126"></path><path d="M896 384H776c-4.8 0-8-3.2-8-8V272c0-4.8 3.2-8 8-8h120c4.8 0 8 3.2 8 8v104c0 4.8-3.2 8-8 8z m-112-16h104V280H784v88z" fill="#6B3C1C" p-id="18127"></path><path d="M808 280c-4.8 0-8-3.2-8-8v-72c0-4.8 3.2-8 8-8s8 3.2 8 8v72c0 4.8-3.2 8-8 8zM864 280c-4.8 0-8-3.2-8-8v-40c0-4.8 3.2-8 8-8s8 3.2 8 8v40c0 4.8-3.2 8-8 8zM776 400h16v24h-16zM808 400h16v24h-16zM800 296h16v24h-16zM832 296h16v24h-16zM840 400h16v24h-16zM872 400h16v24h-16zM776 448h16v24h-16zM808 448h16v24h-16zM840 448h16v24h-16zM872 448h16v24h-16zM776 496h16v24h-16zM808 496h16v24h-16zM840 496h16v24h-16zM872 496h16v24h-16zM776 544h16v24h-16zM808 544h16v24h-16zM840 544h16v24h-16zM872 544h16v24h-16zM776 592h16v24h-16zM808 592h16v24h-16zM840 592h16v24h-16zM872 592h16v24h-16zM776 640h16v24h-16zM808 640h16v24h-16zM840 640h16v24h-16zM872 640h16v24h-16zM776 688h16v24h-16zM808 688h16v24h-16zM840 688h16v24h-16zM872 688h16v24h-16zM776 736h16v24h-16zM808 736h16v24h-16zM840 736h16v24h-16zM872 736h16v24h-16zM776 784h16v24h-16zM808 784h16v24h-16zM840 784h16v24h-16zM872 784h16v24h-16z" fill="#6B3C1C" p-id="18128"></path><path d="M872 336c-4.8 0-8-3.2-8-8v-32c0-4.8 3.2-8 8-8s8 3.2 8 8v32c0 4.8-3.2 8-8 8z" fill="#FFFFFF" p-id="18129"></path><path d="M256 304h136v528H256z" fill="#D4D6D6" p-id="18130"></path><path d="M392 840H256c-4.8 0-8-3.2-8-8V304c0-4.8 3.2-8 8-8h136c4.8 0 8 3.2 8 8v528c0 4-3.2 8-8 8z m-128-16h120V312H264v512z" fill="#6B3C1C" p-id="18131"></path><path d="M304 840h-16c-4.8 0-8-3.2-8-8V344c0-4.8 3.2-8 8-8h16c4.8 0 8 3.2 8 8v488c0 4.8-3.2 8-8 8zM360 840h-16c-4.8 0-8-3.2-8-8V344c0-4.8 3.2-8 8-8h16c4.8 0 8 3.2 8 8v488c0 4.8-3.2 8-8 8z" fill="#6B3C1C" p-id="18132"></path><path d="M352 808c-4.8 0-8-3.2-8-8V456c0-4.8 3.2-8 8-8s8 3.2 8 8v344c0 4.8-3.2 8-8 8zM352 424c-4.8 0-8-3.2-8-8v-64c0-4.8 3.2-8 8-8s8 3.2 8 8v64c0 4.8-3.2 8-8 8zM296 664c-4.8 0-8-3.2-8-8V464c0-4.8 3.2-8 8-8s8 3.2 8 8v192c0 4.8-3.2 8-8 8z" fill="#FFFFFF" p-id="18133"></path><path d="M392 536h144v296H392z" fill="#415E6D" p-id="18134"></path><path d="M536 840H392c-4.8 0-8-3.2-8-8V536c0-4.8 3.2-8 8-8h144c4.8 0 8 3.2 8 8v296c0 4.8-3.2 8-8 8z m-136-16h128V544H400v280z" fill="#6B3C1C" p-id="18135"></path><path d="M424 568h80v264H424z" fill="#3AD0F9" p-id="18136"></path><path d="M504 840H424c-4.8 0-8-3.2-8-8V568c0-4.8 3.2-8 8-8h80c4.8 0 8 3.2 8 8v264c0 4.8-3.2 8-8 8z m-72-16h64V576h-64v248z" fill="#6B3C1C" p-id="18137"></path><path d="M444 688c-2.4 0-4-0.8-5.6-2.4-3.2-3.2-3.2-8 0-11.2l28-28c3.2-3.2 8-3.2 11.2 0 3.2 3.2 3.2 8 0 11.2l-28 28c-1.6 1.6-3.2 2.4-5.6 2.4zM444 636c-2.4 0-4-0.8-5.6-2.4-3.2-3.2-3.2-8 0-11.2l28-28c3.2-3.2 8-3.2 11.2 0 3.2 3.2 3.2 8 0 11.2l-28 28c-1.6 1.6-3.2 2.4-5.6 2.4zM444 792c-2.4 0-4-0.8-5.6-2.4-3.2-3.2-3.2-8 0-11.2l28-28c3.2-3.2 8-3.2 11.2 0 3.2 3.2 3.2 8 0 11.2l-28 28c-1.6 1.6-3.2 2.4-5.6 2.4z" fill="#FFFFFF" p-id="18138"></path><path d="M656 664h96v168H656z" fill="#415E6D" p-id="18139"></path><path d="M752 840H656c-4.8 0-8-3.2-8-8V664c0-4.8 3.2-8 8-8h96c4.8 0 8 3.2 8 8v168c0 4.8-3.2 8-8 8z m-88-16h80V672H664v152z" fill="#6B3C1C" p-id="18140"></path><path d="M680 688h16v24h-16zM712 688h16v24h-16zM680 728h16v24h-16zM712 728h16v24h-16zM680 768h16v24h-16zM712 768h16v24h-16z" fill="#F99900" p-id="18141"></path></svg>