<?xml version="1.0" standalone="no"?><!DOCTYPE svg PUBLIC "-//W3C//DTD SVG 1.1//EN" "http://www.w3.org/Graphics/SVG/1.1/DTD/svg11.dtd"><svg t="1583995162421" class="icon" viewBox="0 0 1040 1024" version="1.1" xmlns="http://www.w3.org/2000/svg" p-id="17314" xmlns:xlink="http://www.w3.org/1999/xlink" width="203.125" height="200"><defs><style type="text/css"></style></defs><path d="M965.9 324.388c-24.207-58.1-58.099-108.936-101.673-152.51-43.575-43.575-94.411-77.467-152.51-101.675-118.62-50.837-254.185-50.837-372.804 0-58.1 24.208-108.937 58.1-152.511 101.674-43.575 43.575-77.466 94.411-101.674 152.51S45.995 445.428 45.995 510.79 58.1 639.092 84.728 697.19c24.208 58.1 58.1 108.937 101.674 152.511 43.574 43.575 94.411 77.466 152.51 101.674s121.04 38.733 186.402 38.733 128.303-12.104 186.402-38.733c58.1-24.208 108.936-58.1 152.511-101.674 43.574-43.574 77.466-94.411 101.674-152.51s38.733-121.04 38.733-186.402-14.525-128.303-38.733-186.402zM457.533 796.444l118.62-82.307L413.956 597.94 300.18 556.785l-38.733 96.832 29.05 67.783-19.367 77.465v26.63C176.719 750.448 123.461 634.25 123.461 513.21v-24.208l60.52 96.833 26.629-4.842s14.525-2.42 31.47-9.683c26.63-9.684 45.996-21.788 55.679-38.733 7.262-9.683 9.683-21.787 9.683-33.891 2.42-7.263 14.525-24.208 48.416-65.362 21.787-26.629 43.575-48.416 50.837-55.679l41.154-41.153-55.679-21.788c-36.312-14.524-91.99-36.312-111.357-43.574-2.42-4.842-7.262-14.525-12.104-31.47v-2.421c-2.42-9.683-7.262-19.367-9.683-26.63 72.624-65.36 167.035-101.673 266.288-101.673 94.412 0 183.982 31.47 256.606 91.99l-137.986 45.996-72.624 77.466v14.525c0 14.524-2.421 33.89-2.421 43.574-7.263 7.262-19.367 16.946-31.47 31.47l-12.105 12.104 7.263 65.362-43.575 70.203 96.833 82.308 29.05-4.842 7.262 21.787s4.841 29.05 9.683 60.52c12.104 67.783 21.787 82.308 31.47 91.991 12.104 12.104 31.47 14.525 48.416 7.262 2.421-2.42 7.263-2.42 9.684-7.262 4.841-2.42 12.104-9.683 19.366-14.525 12.104-9.683 26.629-24.208 41.154-36.312l2.42-2.42c7.263-7.263 16.946-16.946 19.367-16.946 12.104-7.263 16.945-21.787 16.945-36.312V694.77c0-7.263-2.42-14.525-4.841-24.208 0-4.842-2.42-7.263-2.42-12.104l53.257-45.996-31.47-65.361 12.103-19.367 87.15-2.42c-7.263 215.451-186.403 387.328-401.854 387.328-33.891 0-67.783-4.842-101.674-12.104l26.629-104.095zM290.496 387.33c-43.574 50.836-60.52 79.886-62.94 104.094-2.421 0-4.842 2.421-7.263 4.842L176.72 426.06l-33.892-38.732c12.104-41.154 31.47-77.466 58.1-113.778 9.683 26.629 21.787 50.837 41.153 62.94 9.684 4.842 43.575 19.367 70.204 29.05l-21.788 21.788z m503.528 65.361l-50.837 94.412 21.787 48.416L721.4 631.83l4.841 21.787c2.42 14.525 7.263 31.47 7.263 43.574L721.4 709.296c-4.842 4.841-12.104 9.683-16.946 16.945 0-4.841-2.42-12.104-2.42-19.366-4.843-26.63-7.263-53.258-7.263-55.679l-26.63-99.253-60.52 12.104-19.366-16.945 21.788-36.312-4.842-53.258c9.683-9.683 16.946-14.525 16.946-16.946 19.366-9.683 21.787-31.47 24.208-38.733 0-7.262 2.42-14.524 2.42-26.628v-19.367l38.733-41.154 154.932-53.257c43.574 55.678 70.203 118.62 82.307 186.402l-130.723 4.841z m-418.8 210.61l67.783 48.416-50.837 33.892-43.574 125.881-2.421-70.203 24.208-91.99-24.208-58.1 29.05 12.104z" fill="#6DD400" p-id="17315"></path></svg>