<?xml version="1.0" standalone="no"?><!DOCTYPE svg PUBLIC "-//W3C//DTD SVG 1.1//EN" "http://www.w3.org/Graphics/SVG/1.1/DTD/svg11.dtd"><svg t="1583994814316" class="icon" viewBox="0 0 1024 1024" version="1.1" xmlns="http://www.w3.org/2000/svg" p-id="16572" xmlns:xlink="http://www.w3.org/1999/xlink" width="200" height="200"><defs><style type="text/css"></style></defs><path d="M0 761.45664c24.4736 17.14176 55.6032 32.59392 92.85632 45.95712 91.15648 32.7168 211.78368 50.76992 339.5584 50.76992 6.26688 0 12.52352-0.04096 18.74944-0.13312 1.04448 10.0352 3.54304 20.02944 7.53664 29.6448 10.15808 24.30976 24.0128 46.9504 41.95328 70.0416l4.20864 5.34528 1.24928 1.50528c26.7264 31.27296 68.4032 45.4144 109.1072 37.39648 8.12032-1.6384 14.47936 1.77152 15.5648 5.12l0.256 0.7168C570.1632 1018.40896 502.5792 1024 432.41472 1024c-120.50432 0-233.33888-16.4864-317.7472-46.4896C31.72352 948.03968 1.19808 914.432 0.17408 892.43648l-0.03072-1.14688H0V761.45664zM590.7456 942.71488l2.62144 0.03072a54.39488 54.39488 0 0 1-16.36352-2.31424 52.74624 52.74624 0 0 1-14.7456-7.17824 51.16928 51.16928 0 0 1-9.4208-8.58112c-15.1552-18.91328-28.29312-38.77888-37.376-60.53888a44.88192 44.88192 0 0 1-0.99328-2.59072l0.98304 2.59072a44.88192 44.88192 0 0 1-2.56-8.38656 46.4896 46.4896 0 0 1 11.8784-40.94976l0.78848-0.79872a65.14688 65.14688 0 0 0 17.58208-32.72704l-0.39936 1.82272a65.34144 65.34144 0 0 0 1.4336-8.4992l-0.0512 0.45056a65.77152 65.77152 0 0 0 0.36864-6.22592l-0.03072 1.3824c0.03072-0.98304 0.04096-1.96608 0.03072-2.93888v1.55648c0.01024-0.84992 0-1.6896-0.02048-2.52928l0.02048 0.9728a66.1504 66.1504 0 0 0-0.07168-2.53952l0.0512 1.56672a66.2016 66.2016 0 0 0-0.1024-2.51904l0.0512 0.95232a66.29376 66.29376 0 0 0-0.19456-2.72384l0.13312 1.77152a66.3552 66.3552 0 0 0-0.256-3.01056l0.12288 1.23904a66.41664 66.41664 0 0 0-0.22528-2.14016l0.1024 0.90112a66.47808 66.47808 0 0 0-0.32768-2.47808l0.22528 1.57696a66.53952 66.53952 0 0 0-0.47104-3.16416l0.24576 1.5872a66.6112 66.6112 0 0 0-4.18816-15.36l0.512 1.29024a67.3792 67.3792 0 0 0-1.05472-2.58048l0.54272 1.29024a67.4816 67.4816 0 0 0-1.024-2.4064l0.48128 1.1264c-0.3072-0.7168-0.62464-1.4336-0.96256-2.14016l0.47104 1.01376a67.70688 67.70688 0 0 0-1.30048-2.7136l0.82944 1.69984a67.7888 67.7888 0 0 0-1.08544-2.2016l0.256 0.512a67.9936 67.9936 0 0 0-1.28-2.41664l1.024 1.90464a68.05504 68.05504 0 0 0-1.4336-2.65216l0.4096 0.74752a68.3008 68.3008 0 0 0-1.42336-2.43712l1.00352 1.6896a68.4032 68.4032 0 0 0-1.39264-2.31424l0.38912 0.62464a68.66944 68.66944 0 0 0-1.3824-2.16064l0.99328 1.536a68.80256 68.80256 0 0 0-1.55648-2.3552l0.5632 0.8192a69.4272 69.4272 0 0 0-3.85024-5.2224l-1.91488-2.27328-3.44064-3.69664c-11.85792-13.2096-15.28832-32.13312-8.4992-48.44544 9.08288-21.76 22.2208-42.56768 37.376-60.54912 0.50176-0.58368 1.024-1.16736 1.54624-1.73056l-1.55648 1.7408a47.63648 47.63648 0 0 1 3.95264-4.096c12.288-11.34592 30.34112-16.3328 47.57504-12.93312 18.18624 3.7888 36.36224 0.94208 52.5312-7.5776 16.15872-8.4992 27.27936-22.69184 33.34144-38.77888 6.05184-17.9712 22.2208-30.26944 41.41056-33.10592a329.24672 329.24672 0 0 1 74.752 0 53.6576 53.6576 0 0 1 28.25216 13.07648l0.33792 0.3072c0.4608 0.43008 0.91136 0.86016 1.35168 1.31072l-1.6896-1.61792a49.13152 49.13152 0 0 1 8.2944 9.79968 46.86848 46.86848 0 0 1 4.88448 10.24l0.95232 2.78528a59.6992 59.6992 0 0 0 1.15712 2.88768l-0.78848-1.92512c0.3584 0.9216 0.73728 1.83296 1.13664 2.73408L849.92 552.91904c0.38912 0.9216 0.80896 1.81248 1.23904 2.7136l-0.89088-1.90464c0.45056 0.99328 0.9216 1.98656 1.4336 2.95936l-0.54272-1.05472c0.43008 0.8704 0.88064 1.7408 1.35168 2.60096l-0.8192-1.54624c0.47104 0.91136 0.95232 1.80224 1.46432 2.69312l-0.64512-1.14688c0.49152 0.88064 0.99328 1.75104 1.51552 2.62144l-0.8704-1.47456c0.512 0.8704 1.024 1.7408 1.57696 2.59072l-0.70656-1.1264c0.512 0.82944 1.03424 1.64864 1.57696 2.4576l-0.8704-1.3312c0.60416 0.94208 1.2288 1.87392 1.8944 2.79552l-1.024-1.46432c0.58368 0.86016 1.18784 1.71008 1.80224 2.53952l-0.77824-1.0752c0.52224 0.73728 1.0752 1.47456 1.6384 2.19136l-0.86016-1.11616a71.34208 71.34208 0 0 0 23.73632 20.1728c16.16896 8.51968 34.3552 11.3664 52.5312 7.5776 19.2-3.7888 39.40352 2.83648 50.51392 17.01888 14.14144 19.8656 27.27936 39.7312 36.37248 61.4912 6.93248 16.6912 3.18464 36.096-9.3184 49.33632l-0.78848 0.79872c-25.25184 25.53856-25.25184 66.22208 0 92.70272 13.13792 13.25056 17.17248 33.11616 10.10688 50.13504-9.09312 21.76-22.2208 42.56768-37.376 60.54912-11.8784 13.90592-31.52896 20.54144-49.41824 17.23392l-1.09568-0.2048c-18.18624-3.7888-36.37248-0.95232-52.5312 7.55712-16.16896 8.51968-27.27936 22.71232-33.34144 38.78912-6.06208 17.9712-22.2208 30.26944-41.4208 33.10592-12.12416 0.95232-25.25184 1.8944-37.376 1.8944-12.12416 0-25.25184-0.94208-37.376-2.83648-17.37728-2.57024-32.256-12.89216-39.424-28.14976l0.95232 1.90464a44.4928 44.4928 0 0 1-2.94912-6.8608 65.37216 65.37216 0 0 0-3.19488-7.96672l0.3584 0.75776a65.25952 65.25952 0 0 0-1.024-2.11968l0.6656 1.36192a65.31072 65.31072 0 0 0-1.15712-2.304l0.49152 0.94208a65.4336 65.4336 0 0 0-1.28-2.38592l0.78848 1.44384a65.49504 65.49504 0 0 0-1.06496-1.93536l0.27648 0.49152a65.67936 65.67936 0 0 0-1.18784-2.03776l0.91136 1.54624a65.78176 65.78176 0 0 0-1.4336-2.37568l0.512 0.82944a66.02752 66.02752 0 0 0-1.4336-2.26304l0.9216 1.4336a66.1504 66.1504 0 0 0-1.24928-1.92512l0.32768 0.49152a66.44736 66.44736 0 0 0-1.35168-1.9456l1.024 1.45408c-0.512-0.74752-1.03424-1.4848-1.57696-2.2016l0.55296 0.74752a66.92864 66.92864 0 0 0-1.61792-2.1504l1.06496 1.40288a67.10272 67.10272 0 0 0-1.52576-1.98656l0.4608 0.58368a67.72736 67.72736 0 0 0-11.75552-11.75552l1.04448 0.83968a71.49568 71.49568 0 0 0-2.10944-1.65888l1.06496 0.8192a71.80288 71.80288 0 0 0-1.792-1.36192l0.72704 0.54272a72.18176 72.18176 0 0 0-1.90464-1.39264l1.1776 0.84992c-0.69632-0.512-1.41312-1.024-2.12992-1.50528l0.95232 0.65536a72.82688 72.82688 0 0 0-2.03776-1.39264l1.08544 0.73728a73.14432 73.14432 0 0 0-2.12992-1.41312l1.04448 0.67584a73.49248 73.49248 0 0 0-2.27328-1.4336l1.2288 0.75776a73.75872 73.75872 0 0 0-1.93536-1.1776l0.70656 0.41984a74.10688 74.10688 0 0 0-1.90464-1.10592l1.19808 0.68608a75.38688 75.38688 0 0 0-11.3664-5.4784l0.8192 0.32768a76.71808 76.71808 0 0 0-1.49504-0.58368l0.67584 0.256a76.9536 76.9536 0 0 0-2.38592-0.8704l1.71008 0.6144a77.1072 77.1072 0 0 0-2.80576-0.9728l1.09568 0.3584a77.34272 77.34272 0 0 0-2.33472-0.75776l1.23904 0.39936a77.54752 77.54752 0 0 0-2.72384-0.84992l1.4848 0.45056a77.70112 77.70112 0 0 0-2.4064-0.70656l0.9216 0.256a77.89568 77.89568 0 0 0-2.21184-0.59392l1.29024 0.33792a78.0288 78.0288 0 0 0-2.57024-0.6656l1.28 0.32768a78.19264 78.19264 0 0 0-2.56-0.6144l1.28 0.28672a78.336 78.336 0 0 0-2.32448-0.512l1.05472 0.22528a78.46912 78.46912 0 0 0-2.36544-0.49152l1.31072 0.26624a78.60224 78.60224 0 0 0-2.79552-0.53248l1.4848 0.26624a78.70464 78.70464 0 0 0-2.39616-0.4096l0.91136 0.14336a78.848 78.848 0 0 0-2.6112-0.38912l1.69984 0.24576a78.92992 78.92992 0 0 0-2.68288-0.37888l0.98304 0.13312a79.06304 79.06304 0 0 0-2.56-0.3072l1.57696 0.17408a79.13472 79.13472 0 0 0-2.42688-0.256l0.83968 0.08192a79.38048 79.38048 0 0 0-6.07232-0.38912l-2.72384-0.02048-2.51904 0.06144-2.9696 0.17408a80.22016 80.22016 0 0 0-2.83648 0.27648l2.1504-0.21504c-1.06496 0.09216-2.12992 0.2048-3.18464 0.33792l1.03424-0.12288a80.54784 80.54784 0 0 0-3.26656 0.44032l2.23232-0.31744a80.62976 80.62976 0 0 0-2.85696 0.4096l-3.01056 0.55296c-2.49856 0.49152-5.00736 0.8192-7.49568 0.95232l-2.47808 0.1024-2.46784-0.03072h-0.1536zM108.9536 852.48a40.89856 40.89856 0 1 0 0 81.79712 40.89856 40.89856 0 0 0 0-81.79712z m655.0016-178.4832c-55.56224 0-101.0176 42.57792-101.0176 94.60736 0 25.6 11.01824 48.92672 28.8256 65.9968l1.05472 1.00352-1.05472-1.00352c0.55296 0.53248 1.10592 1.05472 1.66912 1.56672l-0.6144-0.5632c0.65536 0.6144 1.32096 1.20832 1.98656 1.80224l-1.37216-1.2288c0.8192 0.73728 1.6384 1.47456 2.48832 2.19136l-1.11616-0.96256c0.73728 0.64512 1.47456 1.28 2.23232 1.90464l-1.1264-0.94208c0.79872 0.67584 1.59744 1.34144 2.41664 1.9968l-1.29024-1.05472c0.6144 0.512 1.2288 1.00352 1.8432 1.49504l-0.55296-0.44032a101.26336 101.26336 0 0 0 6.58432 4.87424l-2.01728-1.41312a102.18496 102.18496 0 0 0 6.98368 4.57728l-1.09568-0.6656c0.768 0.47104 1.536 0.9216 2.31424 1.3824l-1.21856-0.7168c0.94208 0.55296 1.88416 1.10592 2.83648 1.6384l-1.61792-0.9216c0.82944 0.48128 1.66912 0.94208 2.5088 1.40288l-0.89088-0.49152a103.4752 103.4752 0 0 0 6.8608 3.4816l-0.67584-0.3072c0.99328 0.4608 1.9968 0.9216 3.01056 1.35168l-2.34496-1.04448c0.88064 0.4096 1.77152 0.79872 2.67264 1.18784l-0.32768-0.14336c0.8704 0.37888 1.7408 0.74752 2.62144 1.09568l-2.29376-0.95232c1.024 0.44032 2.06848 0.8704 3.1232 1.28l-0.8192-0.32768a104.7552 104.7552 0 0 0 13.53728 4.37248l-1.19808-0.3072c0.96256 0.256 1.92512 0.49152 2.88768 0.7168l-1.6896-0.4096c1.03424 0.26624 2.07872 0.512 3.1232 0.73728l-1.4336-0.32768c1.1776 0.27648 2.36544 0.53248 3.56352 0.768l-2.12992-0.44032c0.90112 0.19456 1.80224 0.37888 2.7136 0.55296l-0.58368-0.11264a106.1888 106.1888 0 0 0 7.71072 1.21856l-0.8192-0.1024c1.01376 0.13312 2.02752 0.24576 3.05152 0.34816l-2.23232-0.24576c1.14688 0.13312 2.28352 0.256 3.44064 0.3584l-1.20832-0.11264c0.98304 0.1024 1.97632 0.18432 2.9696 0.256l-1.76128-0.14336c1.10592 0.1024 2.21184 0.17408 3.33824 0.24576l-1.57696-0.1024c0.95232 0.06144 1.90464 0.12288 2.8672 0.16384l-1.29024-0.06144c1.06496 0.06144 2.12992 0.1024 3.20512 0.13312l2.92864 0.04096a111.16544 111.16544 0 0 0 19.93728-1.81248l-0.45056 0.08192a106.6496 106.6496 0 0 0 8.6016-1.91488l-0.7168 0.18432 1.49504-0.39936-0.77824 0.2048a104.40704 104.40704 0 0 0 17.12128-6.20544l-1.792 0.8192c0.86016-0.37888 1.71008-0.768 2.54976-1.1776l-0.75776 0.3584c0.4608-0.2048 0.9216-0.43008 1.3824-0.65536l-0.62464 0.3072 2.48832-1.2288 2.10944-1.10592a101.86752 101.86752 0 0 0 2.4576-1.37216l-0.73728 0.41984c0.512-0.28672 1.024-0.57344 1.51552-0.8704l-0.768 0.45056a101.3248 101.3248 0 0 0 16.896-12.21632 97.92512 97.92512 0 0 0 9.0112-9.23648l-0.37888 0.44032a95.232 95.232 0 0 0 9.43104-12.98432l-0.29696 0.49152a92.7744 92.7744 0 0 0 1.05472-1.77152l-0.75776 1.28c0.47104-0.77824 0.9216-1.55648 1.37216-2.3552l-0.6144 1.0752a92.13952 92.13952 0 0 0 4.85376-9.60512l-0.8192 1.85344c0.36864-0.8192 0.73728-1.6384 1.08544-2.47808l-0.26624 0.62464 0.75776-1.78176-0.49152 1.15712a90.3168 90.3168 0 0 0 4.1984-12.22656l-0.36864 1.3312a89.5488 89.5488 0 0 0 1.50528-6.2464l-0.12288 0.6144a89.4976 89.4976 0 0 0 0.38912-1.95584l-0.26624 1.34144a89.4976 89.4976 0 0 0 0.512-2.6624l-0.24576 1.32096c0.16384-0.84992 0.3072-1.71008 0.45056-2.56l-0.2048 1.23904c0.14336-0.89088 0.28672-1.78176 0.4096-2.68288l-0.2048 1.4336a89.7536 89.7536 0 0 0 0.78848-6.57408l-0.08192 0.9216c0.26624-2.78528 0.39936-5.61152 0.39936-8.46848 0-25.11872-10.5984-48.0256-27.81184-65.024l-1.3312-1.26976a100.31104 100.31104 0 0 0-10.02496-8.36608l0.45056 0.33792a101.55008 101.55008 0 0 0-1.95584-1.41312l1.50528 1.0752a101.7856 101.7856 0 0 0-2.59072-1.83296l1.08544 0.75776a102.21568 102.21568 0 0 0-6.94272-4.46464l0.9216 0.54272c-0.93184-0.55296-1.87392-1.10592-2.82624-1.6384l1.90464 1.09568a103.0144 103.0144 0 0 0-2.42688-1.3824l0.52224 0.29696a103.168 103.168 0 0 0-2.3552-1.28l1.83296 0.98304a103.33184 103.33184 0 0 0-2.9184-1.54624l1.09568 0.5632a103.6288 103.6288 0 0 0-8.192-3.86048l1.93536 0.83968a104.0384 104.0384 0 0 0-2.53952-1.08544l0.60416 0.24576a104.26368 104.26368 0 0 0-2.67264-1.0752l2.06848 0.8192-2.79552-1.09568 0.7168 0.27648a104.45824 104.45824 0 0 0-2.2528-0.83968l1.536 0.5632a104.50944 104.50944 0 0 0-3.13344-1.1264l1.60768 0.5632a104.71424 104.71424 0 0 0-10.24-3.11296l1.792 0.4608c-1.1264-0.29696-2.2528-0.58368-3.39968-0.84992l1.60768 0.38912a105.45152 105.45152 0 0 0-2.32448-0.55296l0.7168 0.16384a105.63584 105.63584 0 0 0-3.5328-0.75776l2.816 0.59392-3.072-0.64512 0.256 0.0512a106.16832 106.16832 0 0 0-7.61856-1.20832l0.82944 0.1024a106.73152 106.73152 0 0 0-2.80576-0.32768l1.97632 0.22528a106.9056 106.9056 0 0 0-3.5328-0.36864l1.55648 0.14336a107.17184 107.17184 0 0 0-3.47136-0.3072l1.91488 0.16384c-1.024-0.1024-2.048-0.16384-3.072-0.22528l1.15712 0.07168a107.71456 107.71456 0 0 0-3.55328-0.19456l2.38592 0.12288c-1.03424-0.07168-2.07872-0.11264-3.13344-0.14336l0.74752 0.02048c-1.34144-0.0512-2.69312-0.07168-4.0448-0.07168z m29.9008 143.9232l-0.512 0.27648a62.0544 62.0544 0 0 1-17.152 5.9904 63.5904 63.5904 0 0 1-7.29088 0.98304l-0.26624 0.02048c-0.78848 0.06144-1.56672 0.1024-2.3552 0.12288l-2.32448 0.04096c-0.96256 0-1.92512-0.02048-2.88768-0.06144l2.88768 0.06144a64.90112 64.90112 0 0 1-16.24064-2.07872 63.15008 63.15008 0 0 1-11.4688-4.22912c-19.49696-9.46176-32.90112-28.55936-32.90112-50.44224a53.20704 53.20704 0 0 1 6.144-24.82176l0.4096-0.768 0.6144-1.10592 0.4096-0.69632c0.63488-1.0752 1.31072-2.12992 2.01728-3.16416l0.34816-0.49152c0.74752-1.06496 1.536-2.11968 2.3552-3.13344l0.36864-0.44032a58.80832 58.80832 0 0 1 13.43488-11.9808 69.5296 69.5296 0 0 1 1.3824-0.8704c1.5872-0.9728 3.2256-1.88416 4.9152-2.7136l0.22528-0.12288a62.32064 62.32064 0 0 1 19.63008-5.90848 63.9488 63.9488 0 0 1 13.25056-0.3584l-2.57024-0.14336a64.52224 64.52224 0 0 1 18.37056 3.3792 62.72 62.72 0 0 1 14.62272 7.28064c15.32928 10.38336 25.2928 27.17696 25.2928 46.05952 0 6.73792-1.26976 13.21984-3.59424 19.24096l0.39936-1.0752a54.02624 54.02624 0 0 1-6.35904 12.3392 56.92416 56.92416 0 0 1-8.64256 9.94304 59.94496 59.94496 0 0 1-11.07968 8.07936l-1.4336 0.78848zM0.02048 505.67168c24.54528 19.07712 55.84896 36.20864 93.36832 51.12832 91.27936 36.22912 212.03968 56.09472 339.94752 56.09472 14.53056 0 28.96896-0.256 43.28448-0.768A280.38144 280.38144 0 0 0 458.752 647.4752c-16.54784 39.8336-7.4752 85.64736 22.48704 116.39808 2.07872 2.28352 2.27328 4.64896 1.11616 6.33856l-0.50176 0.59392-1.2288 1.25952a110.85824 110.85824 0 0 0-15.49312 20.7872 1246.4128 1246.4128 0 0 1-32.7168 0.4096c-120.50432 0-233.33888-16.61952-317.61408-46.86848C31.85664 716.52352 1.3312 682.51648 0.29696 660.16256l-0.02048-1.16736H0V505.66144zM108.9536 608.3584a40.89856 40.89856 0 1 0-0.02048 81.79712 40.89856 40.89856 0 0 0 0.01024-81.79712z m755.73248-353.65888l-0.01024 142.00832-0.04096 1.91488c-0.89088 18.6368-14.6432 38.21568-38.93248 56.75008-2.26304-0.55296-4.5568-1.03424-6.8608-1.44384l-3.4816-0.57344-2.11968-0.27648a392.45824 392.45824 0 0 0-81.5104-0.73728l-7.24992 0.77824-1.8432 0.23552c-39.0144 5.77536-72.448 30.49472-87.72608 66.53952l-1.25952 3.11296-1.14688 3.09248a13.7216 13.7216 0 0 1-2.41664 4.096c-5.12 0.98304-10.30144 1.92512-15.52384 2.83648A118.48704 118.48704 0 0 0 542.6176 542.72c-35.24608 3.47136-71.8848 5.25312-109.28128 5.25312-119.98208 0-232.17152-18.30912-316.0576-51.5584-70.84032-28.02688-113.664-64.43008-115.26144-97.792L1.9456 396.6976H0V255.66208C85.4016 320.53248 246.784 364.2368 431.7696 364.2368c185.82528 0 347.84256-44.15488 432.92672-109.53728zM108.9536 361.63584a40.89856 40.89856 0 1 0 0 81.79712 40.89856 40.89856 0 0 0 0-81.79712zM431.7696 0C494.86848 0 556.032 5.3248 613.29408 15.84128c54.272 9.87136 102.58432 24.02304 143.74912 41.6768 37.2736 16.10752 67.00032 34.80576 85.69856 54.02624 9.34912 9.60512 20.52096 23.88992 20.52096 38.17472s-11.17184 28.5696-20.52096 38.17472c-18.83136 19.22048-48.4352 37.91872-85.7088 54.016-41.02144 17.78688-89.45664 31.81568-143.73888 41.6768-57.3952 10.52672-118.4256 15.85152-181.52448 15.85152-63.10912 0-124.27264-5.3248-181.53472-15.84128-54.272-9.87136-102.58432-24.02304-143.74912-41.6768-37.26336-16.10752-67.00032-34.816-85.69856-54.02624-9.34912-9.60512-20.51072-23.88992-20.51072-38.17472 0-12.32896 8.30464-24.64768 16.5888-33.96608l1.55648-1.71008 2.36544-2.49856C39.6288 92.32384 69.2224 73.6256 106.496 57.52832c41.02144-17.79712 89.45664-31.81568 143.73888-41.68704C307.63008 5.3248 368.66048 0 431.7696 0z" fill="#2178ED" p-id="16573"></path></svg>