<?xml version="1.0" standalone="no"?><!DOCTYPE svg PUBLIC "-//W3C//DTD SVG 1.1//EN" "http://www.w3.org/Graphics/SVG/1.1/DTD/svg11.dtd"><svg t="1584349225017" class="icon" viewBox="0 0 1024 1024" version="1.1" xmlns="http://www.w3.org/2000/svg" p-id="3244" xmlns:xlink="http://www.w3.org/1999/xlink" width="200" height="200"><defs><style type="text/css"></style></defs><path d="M920.448 158.464a55.424 55.424 0 0 0-51.2-54.208L617.408 87.04h-2.88a66.88 66.88 0 0 0-44.8 20.288L88.768 588.672a66.368 66.368 0 0 0-20.032 42.944 57.6 57.6 0 0 0 16.64 45.888l248 247.936a57.6 57.6 0 0 0 40.32 16.64h5.44a66.24 66.24 0 0 0 43.072-19.904l40.32-40.32a28.672 28.672 0 0 0-40.64-40.448l-40.064 40.256a9.92 9.92 0 0 1-6.4 3.008h-1.6L126.272 637.12a9.92 9.92 0 0 1 2.88-7.872l480.96-481.024a11.776 11.776 0 0 1 5.312-3.072l247.296 16.448 3.2 232a11.328 11.328 0 0 1-3.264 6.4l-30.72 30.784a28.672 28.672 0 0 0 40.576 40.576l31.04-30.72a66.752 66.752 0 0 0 19.776-43.328z" fill="#316CE5" p-id="3245"></path><path d="M751.232 267.008a80.192 80.192 0 1 0-0.384 113.152 80.128 80.128 0 0 0 0.384-113.152z m-34.88 78.784a32.64 32.64 0 0 1-44.224 0 30.976 30.976 0 0 1-0.384-43.84l0.384-0.384a32 32 0 0 1 22.08-9.216 29.76 29.76 0 0 1 22.144 9.216 31.616 31.616 0 0 1 9.28 22.144 29.952 29.952 0 0 1-9.28 21.824z" fill="#316CE5" p-id="3246"></path><path d="M868.416 630.656h-2.24a42.88 42.88 0 0 1-42.88-42.944 55.296 55.296 0 0 1 3.52-16.384 39.296 39.296 0 0 0-12.8-46.848l-55.68-30.72-1.792-0.832a36.8 36.8 0 0 0-15.36-3.136 40.96 40.96 0 0 0-29.568 12.352 39.872 39.872 0 0 1-69.824 0 40.96 40.96 0 0 0-29.696-12.288 37.056 37.056 0 0 0-15.36 3.072l-58.176 31.168-1.728 0.896a38.976 38.976 0 0 0-13.312 46.464 53.76 53.76 0 0 1 4.032 16.32 42.88 42.88 0 0 1-42.88 42.88h-2.048a33.6 33.6 0 0 0-31.424 30.72 293.888 293.888 0 0 0-5.12 44.8 255.616 255.616 0 0 0 5.12 44.8 33.472 33.472 0 0 0 31.424 30.464h2.176a41.152 41.152 0 0 1 38.784 58.816 39.296 39.296 0 0 0 12.8 46.848l54.848 30.72 1.728 0.896a37.888 37.888 0 0 0 15.36 3.136 41.536 41.536 0 0 0 30.016-12.8 69.76 69.76 0 0 1 35.392-21.632 71.232 71.232 0 0 1 35.84 22.144 42.048 42.048 0 0 0 30.08 12.8 37.376 37.376 0 0 0 15.36-3.136l56.576-31.36 1.792-0.832a39.04 39.04 0 0 0 13.248-46.464 48.448 48.448 0 0 1-3.968-16.32 42.944 42.944 0 0 1 42.816-42.88h2.24a33.536 33.536 0 0 0 31.36-30.464 285.312 285.312 0 0 0 4.864-44.8 246.848 246.848 0 0 0-4.864-44.8 32.96 32.96 0 0 0-30.656-30.656z m-17.792 99.968a94.912 94.912 0 0 0-79.168 93.248 103.424 103.424 0 0 0 3.904 26.112l-33.984 18.496a83.584 83.584 0 0 0-120.256-12.48 143.104 143.104 0 0 0-14.208 11.968l-32-17.984a85.76 85.76 0 0 0 3.968-25.216 94.976 94.976 0 0 0-79.168-93.312 145.472 145.472 0 0 1 0-50.368 94.912 94.912 0 0 0 79.168-93.44 85.888 85.888 0 0 0-4.032-25.024l35.392-19.2a120.96 120.96 0 0 0 14.592 11.456 89.6 89.6 0 0 0 51.776 19.2 87.552 87.552 0 0 0 51.2-19.2 102.848 102.848 0 0 0 14.144-11.456l33.6 18.56a86.528 86.528 0 0 0-3.904 25.152 94.912 94.912 0 0 0 79.168 93.312 145.728 145.728 0 0 1 0 50.432z" fill="#316CE5" p-id="3247"></path><path d="M674.752 618.368a88 88 0 1 0 88 88 87.936 87.936 0 0 0-88-88z m0 123.84a36.224 36.224 0 1 1 36.224-36.224 36.288 36.288 0 0 1-36.224 36.224z" fill="#316CE5" p-id="3248"></path></svg>