<?xml version="1.0" standalone="no"?><!DOCTYPE svg PUBLIC "-//W3C//DTD SVG 1.1//EN" "http://www.w3.org/Graphics/SVG/1.1/DTD/svg11.dtd"><svg t="1584354314443" class="icon" viewBox="0 0 1024 1024" version="1.1" xmlns="http://www.w3.org/2000/svg" p-id="8042" xmlns:xlink="http://www.w3.org/1999/xlink" width="200" height="200"><defs><style type="text/css"></style></defs><path d="M847.2 309.7c16 0 29 13.6 29 30.3 0 16.7-13 30.3-29 30.3-80.4 0-152.8 18.9-217.9 56.8-14 8.1-31.7 2.9-39.4-11.7-7.8-14.6-2.8-33.1 11.2-41.2 73.8-43 156-64.5 246.1-64.5z m-638 13.5v153.1c58.6 4.7 119.7 23.8 183.2 56.9V386.6c-57.4-38.4-118.3-59.4-183.2-63.4z m638 107.8c16 0 29 13.6 29 30.3 0 16.7-13 30.3-29 30.3-80.4 0-152.8 18.9-217.9 56.8-14 8.1-31.7 2.9-39.4-11.7-7.8-14.6-2.8-33.1 11.2-41.2 73.8-43.1 156-64.5 246.1-64.5z m-409.3-85.7c7.9 5.7 12.6 15 12.6 25V584c0 23.4-24.3 38-43.6 26.2-81.7-49.9-157.2-74.5-226.6-74.5-16 0-29-13.6-29-30.3V292.3c0-16.6 12.7-30.1 28.6-30.3 92.6-1.5 178.8 26.5 258 83.3zM180.2 582.6c86 0 168.6 26.3 247.1 78.4 13.5 9 17.5 27.7 8.9 41.8-8.6 14.1-26.5 18.3-40 9.3-69.4-46.1-141.2-68.9-216-68.9-16 0-29-13.6-29-30.3 0-16.8 13-30.3 29-30.3z m349.9-266.8l-0.9 0.7c-0.7 0.5-1.4 1-2.1 1.4l3-2.1c-1.4 1.1-2.9 2-4.4 2.8-0.6 0.3-1.3 0.6-1.9 0.9-0.6 0.3-1.2 0.5-1.8 0.7l-1.8 0.6c-0.6 0.2-1.2 0.3-1.9 0.4-0.6 0.1-1.1 0.2-1.7 0.3-0.7 0.1-1.3 0.2-2 0.2-0.6 0-1.2 0.1-1.8 0.1-0.6 0-1.2 0-1.8-0.1-0.7 0-1.4-0.1-2-0.2-0.6-0.1-1.1-0.2-1.7-0.3-0.6-0.1-1.3-0.3-1.9-0.4l-1.8-0.6c-0.6-0.2-1.2-0.4-1.8-0.7-0.7-0.3-1.3-0.6-2-0.9-0.4-0.2-0.9-0.5-1.3-0.8-0.7-0.4-1.5-0.9-2.2-1.4-0.3-0.2-0.6-0.4-0.9-0.7-107.7-83.8-226.7-126.2-358-127.4h-15.2v521.8c150.8-0.7 281.4 45 390.6 137 109.2-92 239.7-137.7 390.5-137V188.5c-137.3-2.1-261.4 40.3-373.2 127.3z m-19.3 601.3l-1.3-0.1c-1.5-0.2-3.1-0.5-4.6-0.9-1.2-0.3-2.3-0.8-3.4-1.3-2.8-1.2-5.4-2.9-7.8-5.1-108.6-99.1-241.1-145.1-399.3-138.1-15.2 0.7-28.1-11-30-26.4l-0.2-3.9V159.2c0-16.1 12-29.4 27.4-30.3 154.7-8.8 295.4 33 421.2 125.2 125.7-92.2 266.4-134 421.1-125.2 15.4 0.9 27.4 14.2 27.4 30.3v582.2c0 17.3-13.7 31-30.2 30.3-158.1-7-290.7 38.9-399.2 138.1-2.4 2.2-5 3.9-7.8 5.1-1.1 0.5-2.3 0.9-3.5 1.3-1.5 0.4-3 0.8-4.6 0.9-0.4 0-0.9 0.1-1.3 0.1H511l-0.2-0.1z" fill="#008FD3" p-id="8043"></path></svg>