<?xml version="1.0" standalone="no"?><!DOCTYPE svg PUBLIC "-//W3C//DTD SVG 1.1//EN" "http://www.w3.org/Graphics/SVG/1.1/DTD/svg11.dtd"><svg t="1587361800058" class="icon" viewBox="0 0 1024 1024" version="1.1" xmlns="http://www.w3.org/2000/svg" p-id="1213" xmlns:xlink="http://www.w3.org/1999/xlink" width="200" height="200"><defs><style type="text/css"></style></defs><path d="M800 923.52h-554.666667c-47.146667 0-85.333333-38.186667-85.333333-85.333333v-554.666667c0-47.146667 38.186667-85.333333 85.333333-85.333333h554.666667c47.146667 0 85.333333 38.186667 85.333333 85.333333v554.666667c0 46.933333-38.186667 85.333333-85.333333 85.333333z" fill="#2953FF" p-id="1214"></path><path d="M650.666667 268.16h-256c-47.146667 0-85.333333-38.186667-85.333334-85.333333s38.186667-85.333333 85.333334-85.333334h256c47.146667 0 85.333333 38.186667 85.333333 85.333334s-38.186667 85.333333-85.333333 85.333333z" fill="#FCCA1E" p-id="1215"></path><path d="M532.053333 553.173333H330.666667c-26.88 0-48.64-21.76-48.64-48.64v-9.386666c0-26.88 21.76-48.64 48.64-48.64h201.386666c26.88 0 48.64 21.76 48.64 48.64v9.386666a48.896 48.896 0 0 1-48.64 48.64zM641.493333 745.173333H312.32a48.853333 48.853333 0 0 1-48.853333-48.853333v-9.173333a48.853333 48.853333 0 0 1 48.853333-48.853334h329.173333a48.853333 48.853333 0 0 1 48.853334 48.853334v9.173333a48.853333 48.853333 0 0 1-48.853334 48.853333z" fill="#93A8FF" p-id="1216"></path></svg>