<?xml version="1.0" standalone="no"?><!DOCTYPE svg PUBLIC "-//W3C//DTD SVG 1.1//EN" "http://www.w3.org/Graphics/SVG/1.1/DTD/svg11.dtd"><svg t="1584353901679" class="icon" viewBox="0 0 1024 1024" version="1.1" xmlns="http://www.w3.org/2000/svg" p-id="4199" xmlns:xlink="http://www.w3.org/1999/xlink" width="200" height="200"><defs><style type="text/css"></style></defs><path d="M899.38121548 183.96073049c0-29.26209755-18.44536946-58.86577708-59.77665867-58.86577598H196.63542582c-41.3312903 0-63.30632845 34.15809083-63.30632845 58.86577598V823.96949352c0 26.18786967 3.98511058 42.92533366 12.63849349 53.0589011 7.85636123 9.22268474 20.15327384 13.32165524 39.62338593 13.32165522h402.26844964L555.63696093 848.44945772h-378.58550713V366.4787965h-0.4554408v-77.42500646h680.88461145v72.98445399h41.90059103V183.96073049zM228.06086964 256.71746461c-17.53448677 0-31.88088462-14.34639787-31.88088462-31.88088572 0-17.53448677 14.34639787-31.88088462 31.88088462-31.88088462 17.53448677 0 31.88088462 14.34639787 31.88088463 31.88088462 0 17.53448677-14.23253794 31.88088462-31.88088463 31.88088572z m76.05868186 0c-17.53448677 0-31.88088462-14.34639787-31.88088462-31.88088572 0-17.53448677 14.34639787-31.88088462 31.88088462-31.88088462 17.53448677 0 31.88088462 14.34639787 31.88088572 31.88088462 0 17.53448677-14.34639787 31.88088462-31.88088572 31.88088572z m97.46441928-9.33654575c-6.03459583 6.03459583-14.00481699 9.33654466-22.54433997 9.33654575-17.53448677 0-31.88088462-14.34639787-31.88088462-31.88088572 0-17.53448677 14.34639787-31.88088462 31.88088462-31.88088462 17.53448677 0 31.88088462 14.34639787 31.88088573 31.88088462 0 8.53952298-3.30194883 16.50974413-9.33654576 22.54433997z m0 0" fill="#4073B2" p-id="4200"></path><path d="M259.99868423 605.14422371S288.59185334 367.19042269 344.16991381 371.09013886c16.1112333 1.20976583 38.02934148 28.763959 81.26779048 134.31245937 6.80315308 16.7516973 43.02496247 75.31859014 69.15590218 32.39325648 10.31858953-17.00788269 16.01160559-50.45434623 33.19027816-56.14736228 9.10882371-3.15962337 38.4990145 5.20910862 93.16619225 123.5099635H259.99868423zM509.43814288 375.16064384c0 15.08649068 8.05561665 29.0343777 21.1210865 36.57762248 13.06546985 7.54324479 29.17670316 7.54324479 42.24217191 0s21.12108651-21.49113181 21.1210865-36.57762248-8.05561665-29.0343777-21.1210865-36.57762138c-13.06546985-7.54324479-29.17670316-7.54324479-42.24217191 0a42.2464419 42.2464419 0 0 0-21.1210865 36.57762138" fill="#DF2B2A" p-id="4201"></path><path d="M423.95752086 787.00759241H283.96627877c-13.26472527 0-24.01029118-10.75979812-24.01029118-24.01029118 0-13.26472527 10.75979812-24.01029118 24.01029118-24.01029117h139.99124209c13.26472527 0 24.01029118 10.75979812 24.01029118 24.01029117 0.01423221 13.25049305-10.74556591 24.01029118-24.01029118 24.01029118zM737.18721429 699.67673947H283.96627877c-13.26472527 0-24.01029118-10.75979812-24.01029118-24.0245234s10.75979812-24.01029118 24.01029118-24.01029118h453.16400555c13.26472527-0.01423221 24.0245234 10.73133369 24.03875561 23.99605897 0.01423221 13.26472527-10.71710147 24.0245234-23.98182564 24.03875561z" fill="#4073B2" p-id="4202"></path><path d="M856.11429985 183.96073049v182.51806601h-0.45544081V848.44945772h-378.58550712l-32.2224655 41.90059212H847.11933607c19.47011209 0 31.7670247-4.0989705 39.62338593-13.32165522 8.65338291-10.13356744 12.63849348-26.87103143 12.63849348-53.0589011V183.96073049" fill="#4073B2" p-id="4203"></path></svg>