<?xml version="1.0" standalone="no"?><!DOCTYPE svg PUBLIC "-//W3C//DTD SVG 1.1//EN" "http://www.w3.org/Graphics/SVG/1.1/DTD/svg11.dtd"><svg t="1583994027705" class="icon" viewBox="0 0 1024 1024" version="1.1" xmlns="http://www.w3.org/2000/svg" p-id="3159" xmlns:xlink="http://www.w3.org/1999/xlink" width="200" height="200"><defs><style type="text/css"></style></defs><path d="M962.71988 562.812537v40.548454c0 18.840696-12.696991 35.223909-30.718526 39.934083l-281.791274 74.953202c-41.777195 11.058669-71.062189 48.944851-71.062189 92.360367v104.442987h167.313569v-62.256212c0-21.502968 13.106571-40.753244 33.176008-48.53527l179.191399-70.243029c32.971217-12.901781 54.678975-44.644257 54.678975-80.072956v-91.131626c0-14.130522-11.46825-25.393981-25.393981-25.393981-13.925732 0-25.393981 11.263459-25.393981 25.393981z" fill="#FDDF7F" p-id="3160"></path><path d="M257.217744 915.25642h211.548246c7.782026 0 14.130522 6.348495 14.130521 14.130521V1013.760491h-239.604499v-84.57834c0-7.782026 6.143705-13.925732 13.925732-13.925731z" fill="#AAB1BA" p-id="3161"></path><path d="M61.233551 562.812537v40.548454c0 18.840696 12.696991 35.223909 30.718526 39.934083l281.791274 74.953202c41.777195 11.058669 71.062189 48.944851 71.062189 92.360367v104.442987h-167.313569v-62.256212c0-21.502968-13.106571-40.753244-33.176008-48.53527l-179.191399-70.243029C31.948557 721.115338 10.240799 689.372862 10.240799 653.944163v-91.131626c0-14.130522 11.46825-25.393981 25.393981-25.393981 14.130522 0 25.598771 11.263459 25.598771 25.393981z" fill="#FDDF7F" p-id="3162"></path><path d="M766.735687 915.25642H555.187441c-7.782026 0-14.130522 6.348495-14.130521 14.130521V1013.760491h239.604499v-84.57834c0-7.782026-6.143705-13.925732-13.925732-13.925731z" fill="#AAB1BA" p-id="3163"></path><path d="M605.975403 212.621346L511.976715 118.622658l-93.998688 93.998688c-5.324544 5.324544-8.396397 12.4922-8.396397 20.069437v157.893221c61.641841 42.186775 142.943539 42.186775 204.58538 0v-157.893221c0.20479-7.372446-2.867062-14.744892-8.191607-20.069437z" fill="#83E1E5" p-id="3164"></path><path d="M477.571967 223.680015h68.809497v74.953203h-68.809497z" fill="#ECF4F7" p-id="3165"></path><path d="M511.976715 10.288658c-127.584276 0-231.003312 103.419036-231.003311 231.003312 0 119.392669 90.926836 219.125482 209.705134 229.979361v98.299282h-64.304114c-9.829928 0-18.021535 7.986817-18.021535 18.021535v19.455066c0 9.829928 7.986817 18.021535 18.021535 18.021535h64.304114V688.144121c0 14.130522 11.46825 25.598771 25.598771 25.393981 14.130522 0 25.393981-11.46825 25.393981-25.393981V470.45217c126.560325-16.383214 215.848839-132.29445 199.465626-258.854775C726.187233 96.50532 628.092742 10.288658 511.976715 10.288658z m0 412.037822c-99.937603 0-181.03451-81.096907-181.03451-181.03451s81.096907-181.03451 181.03451-181.03451c99.937603 0 181.03451 81.096907 181.034511 181.03451 0 100.142393-81.096907 181.03451-181.034511 181.03451z" fill="#FDDF7F" p-id="3166"></path><path d="M468.76599 905.016911h-13.925732v-94.203478c0-47.9209-32.356847-89.902885-78.639425-102.190295L284.659627 684.048318l-70.652609-18.840696-119.392669-31.742476c-13.720941-3.686223-23.141289-15.973633-23.141289-30.104155v-40.548454c0-19.659856-15.973633-35.63349-35.63349-35.63349S0.00129 543.152681 0.00129 562.812537v91.131626c-0.20479 39.729293 24.16524 75.362783 61.232261 89.698094l179.191399 70.243029c16.178423 6.348495 26.622722 21.707758 26.622722 39.114922v52.016703h-9.829928c-13.516151 0-24.37003 10.853879-24.37003 24.37003V1013.760491c0 5.734125 4.505384 10.239509 10.239508 10.239509s10.239509-4.505384 10.239509-10.239509v-84.57834c0-2.047902 1.638321-3.891013 3.891013-3.891013h211.548246c2.047902 0 3.891013 1.638321 3.891013 3.891013V1013.760491c0 5.734125 4.505384 10.239509 10.239508 10.239509s10.239509-4.505384 10.239509-10.239509v-84.57834c0-13.311361-10.853879-24.16524-24.37003-24.16524z m-34.404749 0h-146.834552v-52.016703c0-25.803561-15.564053-48.74006-39.729293-58.160408l-179.191399-70.243029c-29.080204-11.263459-48.33048-39.319713-48.12569-70.652608v-91.131626c0-8.396397 6.758076-15.154473 15.154473-15.154473s15.154473 6.758076 15.154472 15.154473v40.548454c0 23.346079 15.768843 43.825096 38.295762 49.968801l31.742477 8.396397c-13.516151 15.359263-12.08262 38.910132 3.276642 52.426284 3.276643 2.867062 6.962866 5.119754 11.058669 6.758075l142.943539 56.317297c5.324544 2.047902 11.263459-0.40958 13.311361-5.734125 2.047902-5.324544-0.40958-11.263459-5.734125-13.311361h-0.20479l-142.943538-56.317297c-8.601187-3.276643-12.696991-13.106571-9.420348-21.707758 3.071853-7.782026 11.67304-12.08262 19.864646-10.034718l34.404749 9.215558 183.491992 48.74006c37.271811 10.034718 63.280163 43.825096 63.280163 82.325649l0.20479 94.613058z m553.95741-377.837864c-19.659856 0-35.63349 15.973633-35.63349 35.63349v40.548454c0 14.130522-9.420348 26.417932-23.141289 30.104155l-117.344767 31.128106L739.293804 684.048318l-91.745996 24.37003c-46.282578 12.28741-78.639425 54.269395-78.639425 102.190295v94.203478h-13.720942c-13.516151 0-24.37003 10.853879-24.37003 24.37003V1013.760491c0 5.734125 4.505384 10.239509 10.239509 10.239509s10.239509-4.505384 10.239508-10.239509v-84.57834c0-2.047902 1.638321-3.891013 3.891013-3.891013h211.548246c2.047902 0 3.891013 1.638321 3.891013 3.891013V1013.760491c0 5.734125 4.505384 10.239509 10.239509 10.239509s10.239509-4.505384 10.239508-10.239509v-84.57834c0-13.516151-10.853879-24.37003-24.37003-24.37003h-9.829928v-52.016703c0-17.202374 10.444299-32.766427 26.622722-39.114923l179.396189-70.243028c37.067021-14.335312 61.232261-49.968801 61.232261-89.698094v-91.131626c-0.20479-19.455066-16.178423-35.428699-35.83828-35.4287z m15.154473 126.765116c0.20479 31.332896-19.045486 59.389149-48.12569 70.652608L776.156035 794.8398c-23.96045 9.215558-39.729293 32.356847-39.729293 58.160408v52.016703h-146.834552v-94.203478c0-38.705342 26.008352-72.49572 63.280162-82.325648l164.446507-43.620307 53.450234-14.130521c8.805977-2.457482 18.021535 2.867062 20.274227 11.877829 2.252692 8.191607-2.047902 16.588004-10.034718 19.864647l-142.943539 56.317297c-5.324544 2.047902-7.986817 7.986817-5.938915 13.311361s7.986817 7.986817 13.311361 5.938915h0.20479L888.790628 720.910548c19.045486-7.577236 28.465834-29.080204 20.888598-48.12569-1.638321-4.095803-3.891013-7.782026-6.758076-11.058669l31.742476-8.396397c22.526919-5.938915 38.295762-26.417932 38.295762-49.968801v-40.548454c0-8.396397 6.758076-15.154473 15.154473-15.154473 8.396397 0 15.154473 6.758076 15.154472 15.154473v91.131626zM561.126356 308.872726c5.734125 0 10.239509-4.505384 10.239509-10.239508s-4.505384-10.239509-10.239509-10.239509h-4.505384v-54.474185h4.505384c5.734125 0 10.239509-4.505384 10.239509-10.239509s-4.505384-10.239509-10.239509-10.239508h-98.299281c-5.734125 0-10.239509 4.505384-10.239509 10.239508s4.505384 10.239509 10.239509 10.239509h4.505383v54.474185H462.827075c-5.734125 0-10.239509 4.505384-10.239509 10.239509s4.505384 10.239509 10.239509 10.239508h98.299281z m-59.389149-20.479017h-13.925732v-54.474185h13.925732v54.474185z m34.404748 0H522.216224v-54.474185h13.925731v54.474185z m15.768844 251.277539v5.734125c0 5.734125-4.505384 10.239509-10.239509 10.239508s-10.239509-4.505384-10.239508-10.239508v-5.734125c0-5.734125 4.505384-10.239509 10.239508-10.239509s10.239509 4.505384 10.239509 10.239509z m0 148.472873v-110.586692c0-5.734125-4.505384-10.239509-10.239509-10.239508s-10.239509 4.505384-10.239508 10.239508v110.586692c0 8.396397-6.758076 15.359263-15.359263 15.359263-8.396397 0-15.359263-6.758076-15.359263-15.359263v-62.870582c0-5.734125-4.505384-10.239509-10.239508-10.239509h-64.304114c-4.300594 0-7.782026-3.481433-7.782026-7.782026V587.796938c0-4.300594 3.481433-7.782026 7.782026-7.782027h54.064605v7.167656c0 5.734125 4.505384 10.239509 10.239509 10.239509s10.239509-4.505384 10.239508-10.239509v-104.852567h0.20479c2.252692 0 4.300594 0.20479 6.553286 0.20479h9.010767c2.047902 0 4.095803-0.20479 5.938915-0.20479h1.023951c2.457482-0.20479 4.710174-0.20479 7.167656-0.40958h0.40958V507.928771c0 5.734125 4.505384 10.239509 10.239509 10.239509s10.239509-4.505384 10.239508-10.239509v-28.670623c131.475289-22.117338 220.149433-146.424972 198.032095-277.900261C727.825555 70.087388 603.517921-18.586756 472.042632 3.325792S251.893199 149.955554 274.010538 281.226053c17.611955 104.647777 101.166344 185.335104 206.428491 199.260836v79.049005h-54.064605c-15.564053 0-28.261043 12.696991-28.261043 28.261044v19.455066c0 15.564053 12.696991 28.261043 28.261043 28.261043h54.064605V688.144121c0 19.659856 15.973633 35.83828 35.83828 35.83828 19.659856-0.20479 35.63349-16.178423 35.63349-35.83828zM291.212912 241.29197C291.212912 119.441819 389.921774 20.528167 511.976715 20.528167c122.054941 0 220.763803 98.913652 220.763804 220.763803 0 114.477705-87.650193 210.114714-201.718318 219.944643-0.819161 0-1.638321 0.20479-2.457482 0.20479-1.023951 0-1.843112 0.20479-2.867062 0.20479-1.023951 0-2.047902 0.20479-3.071853 0.20479H520.168322c-1.228741 0-2.252692 0-3.481433 0.20479h-7.782026c-1.433531 0-3.071853 0-4.505384-0.20479h-1.023951c-1.843112 0-3.481433-0.20479-5.324544-0.20479h-0.614371c-1.843112-0.20479-3.891013-0.20479-5.734124-0.40958-113.453754-10.649089-200.489577-105.876518-200.489577-219.944643zM498.255774 432.156408c1.843112 0.20479 3.686223 0.20479 5.734125 0.409581h1.638321c2.047902 0 4.300594 0.20479 6.348495 0.20479s4.300594 0 6.348496-0.20479h1.638321c1.843112 0 3.686223-0.20479 5.734125-0.409581h0.81916c2.047902-0.20479 4.095803-0.40958 5.938915-0.61437 0.819161 0 1.433531-0.20479 2.252692-0.20479l4.300594-0.614371c1.023951-0.20479 2.047902-0.20479 3.071852-0.40958 1.433531-0.20479 2.867062-0.40958 4.300594-0.819161l3.071853-0.61437 2.457482-0.614371c2.457482-0.40958 4.710174-1.023951 6.962865-1.638321l0.614371-0.20479 4.300593-1.228741h0.204791c19.864646-5.734125 38.500552-14.540102 55.498136-26.213142 0.40958-0.20479 0.614371-0.614371 1.023951-0.819161 86.831032-60.20831 108.334-179.396189 47.920899-266.227221s-179.396189-108.334-266.227221-47.9209-108.334 179.396189-47.9209 266.227221c13.106571 18.635905 29.284994 35.019119 47.9209 47.9209 0.40958 0.20479 0.614371 0.614371 1.023951 0.819161 16.997584 11.67304 35.83828 20.479017 55.702926 26.213142h0.204791l4.300593 1.228741c0.20479 0 0.40958 0.20479 0.614371 0.20479 2.457482 0.614371 4.710174 1.228741 7.167656 1.638321 0.819161 0.20479 1.638321 0.40958 2.457482 0.409581 1.023951 0.20479 2.047902 0.40958 3.276642 0.61437 1.433531 0.20479 2.867062 0.40958 4.300594 0.819161 1.023951 0.20479 2.047902 0.40958 3.071852 0.40958l4.300594 0.614371c0.819161 0 1.433531 0.20479 2.252692 0.20479 2.047902 0.20479 4.095803 0.40958 5.938915 0.61437 0.819161 0.20479 1.023951 0.20479 1.433531 0.20479z m-87.445403-226.702718l-46.692158 46.692159c-4.095803 3.891013-4.095803 10.444299-0.204791 14.540102s10.444299 4.095803 14.540103 0.20479l0.20479-0.20479 20.888597-20.888597v123.898053c-70.857399-62.051422-78.025055-169.975841-15.973633-241.038031s169.975841-78.025055 241.03803-15.973633 78.025055 169.975841 15.973633 241.03803c-4.914964 5.734125-10.239509 11.058669-15.973633 15.973634V245.797354l20.888597 20.888597c3.891013 4.095803 10.444299 4.095803 14.540102 0.20479s4.095803-10.444299 0.204791-14.540102l-0.204791-0.20479-46.692158-46.692159-93.998688-93.998688c-4.095803-4.095803-10.444299-4.095803-14.540103 0l-93.998688 93.998688z m83.55439 205.814121c-2.662272-0.20479-5.324544-0.614371-7.986817-1.023951-0.40958 0-0.614371-0.20479-1.023951-0.20479l-7.372446-1.228741-0.61437-0.20479c-20.479017-4.300594-39.934083-12.28741-57.546038-23.55087v-152.363886c0-4.710174 1.843112-9.420348 5.324544-12.901781l3.686223-3.686223L511.976715 133.16276l82.940019 82.940019 3.686223 3.686223c3.481433 3.481433 5.324544 7.986817 5.324545 12.901781V385.054669c-17.611955 11.263459-37.067021 19.250276-57.546038 23.55087l-0.614371 0.20479c-2.457482 0.40958-4.914964 1.023951-7.372446 1.228741-0.40958 0-0.614371 0.20479-1.02395 0.20479-2.662272 0.40958-5.324544 0.819161-7.986817 1.023951h-1.023951l-6.758076 0.614371c-0.614371 0-1.433531 0-2.047901 0.20479-2.662272 0.20479-5.119754 0.20479-7.782027 0.20479s-5.324544 0-7.782026-0.20479c-0.614371 0-1.433531 0-2.047902-0.20479l-6.758076-0.614371h-0.81916z" fill="#1C1D21" p-id="3167"></path></svg>