<?xml version="1.0" standalone="no"?><!DOCTYPE svg PUBLIC "-//W3C//DTD SVG 1.1//EN" "http://www.w3.org/Graphics/SVG/1.1/DTD/svg11.dtd"><svg t="1583995241900" class="icon" viewBox="0 0 1024 1024" version="1.1" xmlns="http://www.w3.org/2000/svg" p-id="20524" xmlns:xlink="http://www.w3.org/1999/xlink" width="200" height="200"><defs><style type="text/css"></style></defs><path d="M1024 862.32064C1024 951.60832 951.6032 1024 862.31552 1024H161.68448C72.3968 1024 0 951.60832 0 862.32064V161.67936C0 72.39168 72.3968 0 161.68448 0h700.63104C951.6032 0 1024 72.39168 1024 161.67936v700.64128z" fill="#108EE9" p-id="20525"></path><path d="M798.96064 415.4368l-271.0272-130.14016a23.82848 23.82848 0 0 0-20.26496-0.16896L225.41824 414.22336c-18.47296 8.45824-18.56512 34.69824-0.128 43.30496l41.4464 19.23584v112.88064h-14.16192v112.7424h57.96352v-112.7424h-11.59168V491.70944l38.02624 17.66912v156.33408c0 6.85056 2.97472 13.46048 8.21248 17.99168 44.1344 38.24128 99.50208 57.34912 165.0432 57.34912 64.32768 0 128.4864-18.33984 192.16896-54.67136a23.8336 23.8336 0 0 0 12.05248-20.66944v-163.6864a24.4224 24.4224 0 0 0-0.18432-2.95936l84.69504-40.64768c18.02752-8.6784 18.02752-34.32448 0-42.9824z m-111.58016 250.24512c-60.35968 32.02048-120.05376 47.86176-179.38432 47.86176-57.66144 0-105.32864-14.91968-143.95904-44.672v-140.8l140.88192 65.46944a27.35104 27.35104 0 0 0 23.33184-0.15872l159.13472-76.3904v148.68992z m-168.9344-101.8112L242.95936 435.85536l275.38432-125.93152 264.5504 127.0272-264.448 126.91968z" fill="#FFFFFF" p-id="20526"></path></svg>