<?xml version="1.0" standalone="no"?><!DOCTYPE svg PUBLIC "-//W3C//DTD SVG 1.1//EN" "http://www.w3.org/Graphics/SVG/1.1/DTD/svg11.dtd"><svg t="1585897927162" class="icon" viewBox="0 0 1024 1024" version="1.1" xmlns="http://www.w3.org/2000/svg" p-id="6359" xmlns:xlink="http://www.w3.org/1999/xlink" width="200" height="200"><defs><style type="text/css"></style></defs><path d="M451.1 899.3c-86-133.8-18.1-279.8-18.1-279.8l195.6-194.3c0.3-0.9 0.6-1.9 0.9-2.8 1-0.3 2-0.7 3-1l26.9-26.8c3.2-6.7 5.3-15.4 6.3-26.1 1.1-9 1-16.6-0.5-22.7-1.4-6.2-3.3-11.2-5.6-15.2-2.3-4.5-5.4-8.1-9.5-11 0-23-1.4-45.8-4.3-68.2-2.9-19.6-7.8-40.3-14.7-61.9s-17.9-41.4-32.8-59.4c-6.3-7.9-15.1-15.7-26.3-23.6s-24-14.9-38.4-21.1-29.8-11.1-46.1-14.7c-16.4-3.7-33-5.5-49.6-5.5-13.2 0-26.9 1-41 3s-28.2 5.8-42.3 11.4c-14.1 5.6-27.9 13.4-41.4 23.2s-25.7 22.6-36.7 38.3c-12.1 16.3-21.1 34.8-27.2 55.6-6.1 20.8-10.2 40.1-12.5 58.1-2.9 21.2-4 42.6-3.5 64-5.2 5.6-8.9 11.5-11.2 17.7-2.3 5.6-3.9 12.4-4.8 20.2-0.9 7.8 0.4 16.6 3.9 26.1 2.9 9.6 6.3 16.8 10.4 21.9 4 5.1 7.8 9 11.2 11.8 4 2.8 8 4.8 12.1 5.9 2.9 9.5 5.7 18.5 8.6 26.9 2.9 7.3 6 14.4 9.5 21.5 3.5 7 7.5 12.5 12.1 16.4 9.8 7.9 18.7 15.6 26.8 23.2 8.1 7.6 12.7 17.9 13.8 30.7 0.6 9 0.9 17.1 0.9 24.4 0 7.3-1.4 14.3-4.3 21.1-2.9 6.7-7.5 13.5-13.8 20.2s-15.5 13.7-27.6 21.1c-15.5 9.5-33.4 16.8-53.5 21.9-20.1 5.1-39.5 10.8-58.2 17.3-18.7 6.4-35.1 15.1-49.2 26.1S97.4 720 94.5 740.8c-5.8 36.5-7 66.3-3.9 89.3 3.2 23 7.6 36.8 13.4 41.3 3.5 2.8 11.8 5.6 25 8.4 13.2 2.8 29.4 5.6 48.3 8.4 19 2.8 40.1 5.5 63.4 8 23.4 2.5 46.8 4.8 70.3 6.7 23.6 2 46.5 3.5 68.6 4.6 22.2 1.1 41.6 1.7 58.3 1.7 6.3 0 13-0.1 20.1-0.2-2.5-3.2-4.8-6.4-6.9-9.7zM653.3 790.2h130.6v38.4H653.3zM673.9 689.4c11.7 13.8 27 25.1 46 33.8 22-9.4 39.7-20.7 53.1-33.8h-99.1z" fill="#BF9E5B" p-id="6360"></path><path d="M717.5 496.1c-127.7 0-231.2 103.5-231.2 231.2s103.5 231.2 231.2 231.2S948.7 855 948.7 727.3 845.2 496.1 717.5 496.1zM603.1 632.4h111.8c-4.7-7.2-10.3-14.8-17-22.8l17.6-11.1c6.9 7.9 14.1 16.8 21.5 26.4l-11.9 7.5h109.6v48.5h-19.2v-31.4H622.2v31.1H603l0.1-48.2z m200 223.7H784v-10.9H653.3v10.9h-19.2v-82.4h169v82.4z m32.4-89.2c-46.2-3.5-84.6-11.6-115.1-24.2-33.5 13.5-74.6 23.3-123.1 29.4-2.9-6.4-6.6-12.6-10.9-18.7 43.6-4.4 80.7-11.7 111.2-21.8-16.6-9.5-30-20.8-40.3-34-13 12.4-26.4 23.6-40.3 33.4-3.8-4.5-8.3-9.2-13.5-14 30.6-20.9 54.1-43.1 70.5-66.6l18.9 8c-4 4.9-7.9 9.7-11.9 14.3h119.5V689c-14.3 16.7-33.3 31.1-57 43.2 28.7 8.9 63.7 13.4 105 13.6-4.7 6.9-9 13.9-13 21.1z" fill="#BF9E5B" p-id="6361"></path></svg>