<svg id="图层_1" data-name="图层 1" xmlns="http://www.w3.org/2000/svg" xmlns:xlink="http://www.w3.org/1999/xlink" viewBox="0 0 154.56 115.66"><defs><style>.cls-1{fill:none;}.cls-2{fill:#fff;}.cls-3{fill:#fb5058;}.cls-4{fill:#44d9cb;}.cls-5{fill:#efb9e9;}.cls-6{fill:#3b44ac;}.cls-7{clip-path:url(#clip-path);}</style><clipPath id="clip-path"><rect class="cls-1" x="38.55" width="38.55" height="38.55"/></clipPath></defs><title>LOGO</title><rect class="cls-2" x="129.11" y="43.09" width="2.29" height="29.48" rx="1.15"/><rect class="cls-2" x="133.06" y="48.84" width="2.29" height="9.49" rx="1.15" transform="translate(-5.48 16.57) rotate(-6.92)"/><rect class="cls-2" x="125.2" y="47.97" width="2.29" height="12.94" rx="1.15"/><path class="cls-2" d="M148.44,72.55H141c-1.39,0-5.61,0-5.61-4.18a7.9,7.9,0,0,1,2-4.75l.2-.27c2.28-3.09,7.71-10.33,12-16.07H136.5a1.14,1.14,0,0,1-1.15-1.15h0A1.14,1.14,0,0,1,136.5,45h13.65a2.05,2.05,0,0,1,1.77.92,1.94,1.94,0,0,1-.1,2.21c-4.36,5.82-10.06,13.42-12.41,16.59l-.2.28a5.86,5.86,0,0,0-1.58,3.38c0,.88,0,1.88,3.32,1.88h7.49a3.52,3.52,0,0,0,3.38-2.49,3.48,3.48,0,0,0,.1-.93V62.05a1.15,1.15,0,0,1,1.15-1.14h0a1.15,1.15,0,0,1,1.15,1.14v4.78a5.65,5.65,0,0,1-.2,1.57A5.84,5.84,0,0,1,148.44,72.55Z"/><path class="cls-2" d="M150.2,84.4h-9.36V82.78a1.13,1.13,0,0,0-2.26,0V84.4h-9.36a2.68,2.68,0,0,0-2.67,2.67v3.35a1.14,1.14,0,0,0,2.27,0V87.07a.4.4,0,0,1,.4-.41h21a.41.41,0,0,1,.41.41v3.35a1.14,1.14,0,0,0,2.27,0V87.07A2.67,2.67,0,0,0,150.2,84.4Z"/><path class="cls-2" d="M147.2,89.25h-15a1.13,1.13,0,1,0,0,2.26H137c.11.18.24.4.38.68a28.56,28.56,0,0,1-9.91,4.42,1.13,1.13,0,0,0-.88,1.28h0a1.15,1.15,0,0,0,1.36.93,30.37,30.37,0,0,0,10.38-4.53,23.59,23.59,0,0,1,1,3,32.08,32.08,0,0,1-11.83,5.33,1.12,1.12,0,0,0-.88,1.29h0a1.13,1.13,0,0,0,1.35.93,34,34,0,0,0,11.88-5.14c.17,1,.31,2,.4,3.19a33.87,33.87,0,0,1-12.74,5.76,1.13,1.13,0,1,0,.46,2.22,35.68,35.68,0,0,0,12.41-5.3,40.81,40.81,0,0,1-.18,4.31,1.12,1.12,0,0,0,1.12,1.21h0a1.13,1.13,0,0,0,1.12-1c.88-9.58-1.41-15.76-2.85-18.6h7.62a1.13,1.13,0,1,0,0-2.26Z"/><path class="cls-2" d="M152.38,110.31a1.11,1.11,0,0,1-1.62.12c-2.21-2-5.25-5.39-6.16-7.41-1.43-3.19-.28-6.42,3.08-8.8a1.12,1.12,0,0,1,1.61.35h0a1.12,1.12,0,0,1-.31,1.48c-3.3,2.32-2.9,4.74-2.33,6,.76,1.68,3.6,4.82,5.63,6.67a1.12,1.12,0,0,1,.11,1.54Z"/><rect class="cls-3" width="38.55" height="38.55"/><rect class="cls-4" y="38.55" width="38.55" height="38.55"/><rect class="cls-5" y="77.11" width="38.55" height="38.55"/><rect class="cls-6" x="38.55" width="38.55" height="38.55"/><rect class="cls-5" x="77.11" width="38.55" height="38.55"/><rect class="cls-5" x="38.55" y="38.55" width="38.55" height="38.55"/><rect class="cls-4" x="77.11" y="38.55" width="38.55" height="38.55"/><rect class="cls-6" x="77.11" y="77.11" width="38.55" height="38.55"/><rect class="cls-3" x="38.55" y="77.11" width="38.55" height="38.55"/><path class="cls-2" d="M65.11,69.38a1.78,1.78,0,0,1-1.52-1.78V59.91a.35.35,0,0,0-.35-.35H52.42a.35.35,0,0,0-.35.35V67.6a1.77,1.77,0,0,1-1.52,1.78,1.74,1.74,0,0,1-2-1.72V48.06a1.77,1.77,0,0,1,1.52-1.78,1.74,1.74,0,0,1,2,1.72v7.75a.35.35,0,0,0,.35.35H63.24a.35.35,0,0,0,.35-.35V48.06a1.78,1.78,0,0,1,1.52-1.78,1.74,1.74,0,0,1,2,1.72V67.66a1.74,1.74,0,0,1-2,1.72"/><path class="cls-2" d="M96.39,70.17a12.34,12.34,0,1,1,12.33-12.34A12.35,12.35,0,0,1,96.39,70.17m0-21.29a9,9,0,1,0,9,8.95,9,9,0,0,0-9-8.95"/><path class="cls-2" d="M67.83,107.94a1.78,1.78,0,0,1-1.49-1.78V92.7a.24.24,0,0,0-.43-.14l-6.51,8.62a2.11,2.11,0,0,1-1.47.84h-.2a1.93,1.93,0,0,1-1.47-.84l-6.5-8.62a.24.24,0,0,0-.44.14v13.46a1.77,1.77,0,0,1-1.49,1.78,1.73,1.73,0,0,1-1.95-1.72V86.57a.76.76,0,0,1,0-.15.28.28,0,0,1,0-.09.2.2,0,0,1,0-.07.44.44,0,0,1,0-.1v0L46,86v0c0-.06,0-.09.05-.12l0-.06,0-.09,0,0s0-.07.06-.09l.05-.06,0-.07.06-.06s0-.05.06-.06l.05-.06.08-.06.05,0,.1-.06,0,0h0l.11-.06,0,0,.1,0,.06,0,.09,0,.08,0h.08l.09,0h.5l.1,0,0,0,.11,0,0,0,.11,0,.05,0,.1.05.07,0,.06,0,.08.06.05,0,.08.07.05,0,.06.06.05.07,0,.06,0,.08,0,0,8.47,11.08a.34.34,0,0,0,.54,0l8.49-11.1,0,0a.56.56,0,0,0,0-.08l0-.06a.18.18,0,0,0,.05-.07l.07-.06,0,0,.08-.07,0,0,.09-.06.06,0,.07,0,.09,0,.06,0,.09,0,.06,0,.1,0,.07,0h.09l.08,0h.43l.08,0h.08l.07,0,.1,0,.06,0,.1,0,.06,0,.1.06h0l.1.07.05,0,.08.06,0,0,.07.07.05.06,0,.06,0,.07a.22.22,0,0,1,0,.08l0,.06,0,.09,0,0a.49.49,0,0,1,0,.11l0,0,0,.12,0,0a.36.36,0,0,0,0,.1.22.22,0,0,0,0,.08.25.25,0,0,0,0,.08v19.8a1.73,1.73,0,0,1-2,1.72"/><path class="cls-2" d="M90,108A1.73,1.73,0,0,1,88.5,107a1.67,1.67,0,0,1-.21-.82V86.55a.91.91,0,0,1,0-.17,1.28,1.28,0,0,1,.07-.34,1.2,1.2,0,0,1,.13-.31,1.75,1.75,0,0,1,.42-.52l.14-.1a2.69,2.69,0,0,1,.29-.16,1.7,1.7,0,0,1,.67-.13h12.66a1.84,1.84,0,0,1,1.26.47,1.72,1.72,0,0,1,.54,1.37,1.82,1.82,0,0,1-1.83,1.63H92.12a.35.35,0,0,0-.35.34v5.66a.35.35,0,0,0,.35.35h9.72a1.73,1.73,0,0,1,1.27.55,1.71,1.71,0,0,1,.47,1.29,1.82,1.82,0,0,1-1.83,1.63H92.12a.35.35,0,0,0-.35.35v5.65a.35.35,0,0,0,.35.35h10.54a1.82,1.82,0,0,1,1.83,1.63,1.72,1.72,0,0,1-.54,1.37,1.84,1.84,0,0,1-1.26.47Z"/><g class="cls-7"><g class="cls-7"><path class="cls-2" d="M57.83,30.82a1.73,1.73,0,0,1-1.73-1.73V9.47a1.73,1.73,0,1,1,3.46,0V29.09a1.73,1.73,0,0,1-1.73,1.73"/></g></g><path class="cls-2" d="M19.05,30.83a1.78,1.78,0,0,1-1.51-1.78V19.29a.3.3,0,0,0-.08-.22l-7-8.51a1.74,1.74,0,0,1-.31-1.66,1.63,1.63,0,0,1,.33-.59,1.74,1.74,0,0,1,2.65,0L19,15.49a.35.35,0,0,0,.54,0l5.91-7.15a1.73,1.73,0,0,1,1.34-.63,1.71,1.71,0,0,1,1.1.4,1.74,1.74,0,0,1,.23,2.45l-7,8.51a.35.35,0,0,0-.08.22v9.82a1.74,1.74,0,0,1-2,1.72"/></svg>